<svg width="39" height="39" viewBox="0 0 39 39" fill="none" xmlns="http://www.w3.org/2000/svg">
<path d="M23.6543 9.8877C24.7128 9.8877 25.5713 10.7461 25.5713 11.8047C25.5713 12.8632 24.7128 13.7217 23.6543 13.7217C22.5958 13.7217 21.7373 12.8632 21.7373 11.8047C21.7373 10.7461 22.5958 9.8877 23.6543 9.8877Z" fill="#8B8585" stroke="#8B8585" stroke-width="1.91667"/>
<path d="M34.0208 15.7742V9.10417C34.0208 7.07084 33.2131 5.12079 31.7753 3.68301C30.3375 2.24524 28.3875 1.4375 26.3542 1.4375H9.10417C7.07084 1.4375 5.12079 2.24524 3.68301 3.68301C2.24524 5.12079 1.4375 7.07084 1.4375 9.10417V26.4883C1.47268 28.4983 2.29592 30.4141 3.7299 31.823C5.16389 33.2318 7.09387 34.0211 9.10417 34.0208H15.7742M1.4375 26.4883L1.77867 26.105L7.9235 18.7699C8.2833 18.3405 8.73284 17.9952 9.24048 17.7582C9.74813 17.5213 10.3015 17.3985 10.8617 17.3985C11.422 17.3985 11.9754 17.5213 12.483 17.7582C12.9907 17.9952 13.4402 18.3405 13.8 18.7699L16.1805 21.6104" stroke="#8B8585" stroke-width="2.875" stroke-linecap="round" stroke-linejoin="round"/>
<path d="M28.2705 18.6865C30.812 18.6866 33.2497 19.697 35.0469 21.4941C36.8439 23.2913 37.8535 25.729 37.8535 28.2705C37.8534 30.812 36.844 33.2497 35.0469 35.0469C33.2497 36.844 30.812 37.8534 28.2705 37.8535C25.729 37.8535 23.2913 36.8439 21.4941 35.0469C19.697 33.2497 18.6866 30.812 18.6865 28.2705C18.6865 25.7288 19.6969 23.2914 21.4941 21.4941C23.2914 19.6969 25.7288 18.6865 28.2705 18.6865ZM28.2705 20.6172C27.7622 20.6172 27.2745 20.8193 26.915 21.1787C26.5558 21.5381 26.3536 22.0251 26.3535 22.5332V26.3535H22.5332C22.0251 26.3536 21.5381 26.5558 21.1787 26.915C20.8193 27.2745 20.6172 27.7622 20.6172 28.2705C20.6173 28.7787 20.8194 29.2656 21.1787 29.625C21.5381 29.9844 22.025 30.1864 22.5332 30.1865H26.3535V34.0088C26.3535 34.5171 26.5556 35.0048 26.915 35.3643C27.2745 35.7236 27.7623 35.9258 28.2705 35.9258C28.7785 35.9257 29.2657 35.7234 29.625 35.3643C29.9844 35.0048 30.1865 34.5171 30.1865 34.0088V30.1865H34.0068C34.5151 30.1865 35.0029 29.9844 35.3623 29.625C35.7214 29.2657 35.9237 28.7785 35.9238 28.2705C35.9238 27.7623 35.7216 27.2745 35.3623 26.915C35.0029 26.5556 34.5151 26.3535 34.0068 26.3535H30.1865V22.5332C30.1864 22.025 29.9844 21.5381 29.625 21.1787C29.2656 20.8194 28.7787 20.6173 28.2705 20.6172Z" fill="#8B8585" stroke="#8B8585" stroke-width="1.91667"/>
</svg>
